<mxfile host="app.diagrams.net" modified="2024-08-27T02:26:12.329Z" agent="Mozilla/5.0 (Windows NT 10.0; Win64; x64) AppleWebKit/537.36 (KHTML, like Gecko) Chrome/128.0.0.0 Safari/537.36 Edg/128.0.0.0" etag="UWkK1FYbn21iGiTktbnj" version="24.3.1" type="device">
  <diagram id="6a731a19-8d31-9384-78a2-239565b7b9f0" name="Page-1">
    <mxGraphModel dx="1002" dy="567" grid="1" gridSize="10" guides="1" tooltips="1" connect="1" arrows="1" fold="1" page="1" pageScale="1" pageWidth="1169" pageHeight="827" background="none" math="0" shadow="0">
      <root>
        <mxCell id="0" />
        <mxCell id="1" parent="0" />
        <mxCell id="j9uTNev5KnOztQyt8adK-60" style="edgeStyle=orthogonalEdgeStyle;rounded=0;orthogonalLoop=1;jettySize=auto;html=1;exitX=1;exitY=0.5;exitDx=0;exitDy=0;entryX=0;entryY=0.5;entryDx=0;entryDy=0;" edge="1" parent="1" source="j9uTNev5KnOztQyt8adK-55" target="j9uTNev5KnOztQyt8adK-56">
          <mxGeometry relative="1" as="geometry" />
        </mxCell>
        <mxCell id="j9uTNev5KnOztQyt8adK-55" value="进入热门分类界面" style="rounded=1;whiteSpace=wrap;html=1;" vertex="1" parent="1">
          <mxGeometry x="160" y="130" width="120" height="60" as="geometry" />
        </mxCell>
        <mxCell id="j9uTNev5KnOztQyt8adK-61" style="edgeStyle=orthogonalEdgeStyle;rounded=0;orthogonalLoop=1;jettySize=auto;html=1;exitX=1;exitY=0.5;exitDx=0;exitDy=0;entryX=0;entryY=0.5;entryDx=0;entryDy=0;" edge="1" parent="1" source="j9uTNev5KnOztQyt8adK-56" target="j9uTNev5KnOztQyt8adK-57">
          <mxGeometry relative="1" as="geometry" />
        </mxCell>
        <mxCell id="j9uTNev5KnOztQyt8adK-56" value="鼠标悬浮不同分类" style="rounded=1;whiteSpace=wrap;html=1;" vertex="1" parent="1">
          <mxGeometry x="310" y="130" width="120" height="60" as="geometry" />
        </mxCell>
        <mxCell id="j9uTNev5KnOztQyt8adK-62" style="edgeStyle=orthogonalEdgeStyle;rounded=0;orthogonalLoop=1;jettySize=auto;html=1;exitX=1;exitY=0.5;exitDx=0;exitDy=0;entryX=0;entryY=0.5;entryDx=0;entryDy=0;" edge="1" parent="1" source="j9uTNev5KnOztQyt8adK-57" target="j9uTNev5KnOztQyt8adK-58">
          <mxGeometry relative="1" as="geometry" />
        </mxCell>
        <mxCell id="j9uTNev5KnOztQyt8adK-57" value="选择分类标签" style="rounded=1;whiteSpace=wrap;html=1;" vertex="1" parent="1">
          <mxGeometry x="470" y="130" width="120" height="60" as="geometry" />
        </mxCell>
        <mxCell id="j9uTNev5KnOztQyt8adK-67" style="edgeStyle=orthogonalEdgeStyle;rounded=0;orthogonalLoop=1;jettySize=auto;html=1;exitX=1;exitY=0.5;exitDx=0;exitDy=0;entryX=0;entryY=0.5;entryDx=0;entryDy=0;" edge="1" parent="1" source="j9uTNev5KnOztQyt8adK-58" target="j9uTNev5KnOztQyt8adK-64">
          <mxGeometry relative="1" as="geometry" />
        </mxCell>
        <mxCell id="j9uTNev5KnOztQyt8adK-58" value="点击前往分类界面" style="rounded=1;whiteSpace=wrap;html=1;" vertex="1" parent="1">
          <mxGeometry x="630" y="130" width="120" height="60" as="geometry" />
        </mxCell>
        <mxCell id="j9uTNev5KnOztQyt8adK-66" style="edgeStyle=orthogonalEdgeStyle;rounded=0;orthogonalLoop=1;jettySize=auto;html=1;exitX=1;exitY=0.5;exitDx=0;exitDy=0;entryX=0;entryY=0.5;entryDx=0;entryDy=0;" edge="1" parent="1" source="j9uTNev5KnOztQyt8adK-63" target="j9uTNev5KnOztQyt8adK-55">
          <mxGeometry relative="1" as="geometry" />
        </mxCell>
        <mxCell id="j9uTNev5KnOztQyt8adK-63" value="开始" style="ellipse;whiteSpace=wrap;html=1;" vertex="1" parent="1">
          <mxGeometry x="20" y="132.5" width="100" height="55" as="geometry" />
        </mxCell>
        <mxCell id="j9uTNev5KnOztQyt8adK-64" value="结束" style="ellipse;whiteSpace=wrap;html=1;" vertex="1" parent="1">
          <mxGeometry x="790" y="132.5" width="100" height="55" as="geometry" />
        </mxCell>
      </root>
    </mxGraphModel>
  </diagram>
</mxfile>
